Coordinates
version=1
nRows=9
nColumns=24
inDegrees=yes

Units are S.I. units (second, meters, Newtons, ...)
Angles are in degrees.

endheader
time	pelvis_tilt	pelvis_list	pelvis_rotation	pelvis_tx	pelvis_ty	pelvis_tz	hip_flexion_r	hip_adduction_r	hip_rotation_r	knee_angle_r	ankle_angle_r	subtalar_angle_r	mtp_angle_r	hip_flexion_l	hip_adduction_l	hip_rotation_l	knee_angle_l	ankle_angle_l	subtalar_angle_l	mtp_angle_l	lumbar_extension	lumbar_bending	lumbar_rotation
      0.84600000	      0.66971331	      4.12081628	     -2.37705871	     -0.47481367	      1.02300318	      0.32065522	      9.07411484	     -0.69203167	     -2.70776514	    -17.23550569	      7.63334228	     -6.25041035	      9.76460230	     14.55188544	      1.67541226	     -7.28547163	    -64.88510267	      0.23734909	    -19.66521708	      0.18439159	     -4.65937009	     -4.27363257	      3.73254049
      0.85016667	      0.65566022	      4.20123081	     -2.58303816	     -0.46972140	      1.02362792	      0.32125462	      8.63246943	     -0.76189307	     -2.65104327	    -16.90443150	      7.72229142	     -6.03270868	      9.78793766	     15.04313253	      1.73611769	     -7.47548800	    -64.44268880	      0.51420844	    -19.03537596	      0.25749122	     -4.64714033	     -4.36965739	      4.09192534
      0.85433333	      0.63241244	      4.28757609	     -2.79134035	     -0.46463536	      1.02419835	      0.32185192	      8.20492000	     -0.83974103	     -2.59458594	    -16.57876136	      7.81755355	     -5.81980041	      9.81350116	     15.53193055	      1.80099971	     -7.66503287	    -63.95204180	      0.78509386	    -18.38209996	      0.35135463	     -4.62002491	     -4.46782942	      4.45685303
      0.85850000	      0.63224566	      4.37065954	     -2.99950523	     -0.45956251	      1.02476655	      0.32244019	      7.75216334	     -0.91811817	     -2.54163679	    -16.24985900	      7.91058096	     -5.60478618	      9.83911720	     15.98276104	      1.86088494	     -7.85332677	    -63.41339051	      1.05183008	    -17.70640181	      0.45766186	     -4.62033992	     -4.56434523	      4.80674339
      0.86266667	      0.62451951	      4.45470181	     -3.21247554	     -0.45450541	      1.02526176	      0.32300981	      7.31718833	     -1.00079427	     -2.48827958	    -15.93679761	      7.99495049	     -5.39752617	      9.86274121	     16.43073423	      1.92081447	     -8.04485523	    -62.83217059	      1.30734664	    -17.01674371	      0.56694000	     -4.60687897	     -4.64627954	      5.13292365
      0.86683333	      0.62997991	      4.51477556	     -3.40888694	     -0.44946078	      1.02573059	      0.32357347	      6.85318794	     -1.05772860	     -2.43294994	    -15.59767648	      8.09870438	     -5.19391344	      9.89062155	     16.85869716	      1.95140742	     -8.22300996	    -62.22609134	      1.57496188	    -16.32190549	      0.70980840	     -4.62517446	     -4.72681573	      5.50461610
      0.87100000	      0.63356076	      4.59005049	     -3.62099536	     -0.44442856	      1.02616649	      0.32412403	      6.41024568	     -1.13652249	     -2.38480281	    -15.28747352	      8.15765386	     -5.00477710	      9.91141977	     17.26792653	      2.00081489	     -8.40910922	    -61.55485075	      1.79625480	    -15.62678318	      0.82744230	     -4.62489551	     -4.80383141	      5.79001927
      0.87516667	      0.60865286	      4.64766255	     -3.82613039	     -0.43940555	      1.02650116	      0.32468114	      5.98226312	     -1.18740676	     -2.27867440	    -14.94633018	      8.23272127	     -4.88852410	     10.01179349	     17.70210910	      2.02579694	     -8.58930526	    -60.86436843	      2.03663109	    -15.00194028	      1.48911190	     -4.61043832	     -4.88068522	      6.35873911
      0.87933333	      0.58425828	      4.70121214	     -4.01029081	     -0.43437598	      1.02679254	      0.32518265	      5.56737451	     -1.24746753	     -2.26120507	    -14.64050542	      8.31775504	     -4.67148444	     10.02867122	     18.12467998	      2.04740988	     -8.75679261	    -60.13376056	      2.24229411	    -14.28593795	      1.59474882	     -4.58367580	     -4.92969606	      6.47874099
